{"title":"The Crown and the Dragon 2013 DVDRip x264 AAC-BadMeetsEvil","uid":8655334,"size":1064813555,"categoryP":"video","categoryS":"movies","magnet":"?xt=urn:btih:50bff1fa5520d53a4c4e432b27e917c6c59dba9d&amp;dn=The+Crown+and+the+Dragon+2013+DVDRip+x264+AAC-BadMeetsEvil&amp;tr=udp%3A%2F%2Ftracker.openbittorrent.com%3A80&amp;tr=udp%3A%2F%2Fopen.demonii.com%3A1337&amp;tr=udp%3A%2F%2Ftracker.coppersurfer.tk%3A6969&amp;tr=udp%3A%2F%2Fexodus.desync.com%3A6969","seeders":2,"leechers":0,"uploader":"srkfan","files":3,"time":1373204352,"description":" &lt;a href=&quot;\nhttp://www.imdb.com/title/tt1913178/&quot; rel=&quot;nofollow&quot; target=&quot;_NEW&quot;&gt;\nhttp://www.imdb.com/title/tt1913178/&lt;/a&gt;\n\nIn a war-torn country that is plagued by a vicious dragon, Elenn, an arrogant, young noblewoman, accompanies her aunt on a mission to bring an ancient relic to the secret coronation of the rightful king. \n\nGeneral\nComplete name                            : The Crown and the Dragon 2013 DVDRip x264 AAC-BadMeetsEvil.mp4\nFormat                                   : MPEG-4\nFormat profile                           : Base Media\nCodec ID                                 : isom\nFile size                                : 1 002 MiB\nDuration                                 : 1h 31mn\nOverall bit rate mode                    : Variable\nOverall bit rate                         : 1 531 Kbps\nEncoded date                             : UTC 2013-07-07 10:07:11\nTagged date                              : UTC 2013-07-07 10:07:11\n\nVideo\nID                                       : 1\nFormat                                   : AVC\nFormat/Info                              : Advanced Video Codec\nFormat profile                           : &lt;a class=&quot;__cf_email__&quot; href=&quot;/cdn-cgi/l/email-protection&quot; data-cfemail=&quot;cf87a6a8a78f83fbe1fe&quot;&gt;[email&amp;#160;protected]&lt;/a&gt;&lt;script cf-hash='f9e31' type=&quot;text/javascript&quot;&gt;\n/* &lt;![CDATA[ */!function(){try{var t=&quot;currentScript&quot;in document?document.currentScript:function(){for(var t=document.getElementsByTagName(&quot;script&quot;),e=t.length;e--;)if(t[e].getAttribute(&quot;cf-hash&quot;))return t[e]}();if(t&amp;&amp;t.previousSibling){var e,r,n,i,c=t.previousSibling,a=c.getAttribute(&quot;data-cfemail&quot;);if(a){for(e=&quot;&quot;,r=parseInt(a.substr(0,2),16),n=2;a.length-n;n+=2)i=parseInt(a.substr(n,2),16)^r,e+=String.fromCharCode(i);e=document.createTextNode(e),c.parentNode.replaceChild(e,c)}}}catch(u){}}();/* ]]&gt; */&lt;/script&gt;\nFormat settings, CABAC                   : Yes\nFormat settings, ReFrames                : 3 frames\nFormat settings, GOP                     : M=4, N=23\nCodec ID                                 : avc1\nCodec ID/Info                            : Advanced Video Coding\nDuration                                 : 1h 31mn\nBit rate mode                            : Variable\nBit rate                                 : 1 171 Kbps\nMaximum bit rate                         : 40.0 Mbps\nWidth                                    : 720 pixels\nHeight                                   : 400 pixels\nDisplay aspect ratio                     : 16:9\nFrame rate mode                          : Constant\nFrame rate                               : 23.976 fps\nColor space                              : YUV\nChroma subsampling                       : 4:2:0\nBit depth                                : 8 bits\nScan type                                : Progressive\nBits/(Pixel*Frame)                       : 0.170\nStream size                              : 766 MiB (76%)\nWriting library                          : x264 core 133 r2334 a3ac64b\n\nAudio\nID                                       : 2\nFormat                                   : AAC\nFormat/Info                              : Advanced Audio Codec\nFormat profile                           : LC\nCodec ID                                 : 40\nDuration                                 : 1h 31mn\nBit rate mode                            : Variable\nBit rate                                 : 353 Kbps\nMaximum bit rate                         : 412 Kbps\nChannel(s)                               : 6 channels\nChannel positions                        : Front: L C R, Side: L R, LFE\nSampling rate                            : 48.0 KHz\nCompression mode                         : Lossy\nStream size                              : 233 MiB (23%)\nLanguage                                 : English\nEncoded date                             : UTC 2013-07-07 08:26:45\nTagged date                              : UTC 2013-07-07 10:07:55\n\nSubtitles: English hardcoded for foreign parts only\n\n &lt;a href=&quot;\nhttp://img822.imageshack.us/img822/4784/lwte.png&quot; rel=&quot;nofollow&quot; target=&quot;_NEW&quot;&gt;\nhttp://img822.imageshack.us/img822/4784/lwte.png&lt;/a&gt; &lt;a href=&quot;\nhttp://img829.imageshack.us/img829/1571/ibf.png&quot; rel=&quot;nofollow&quot; target=&quot;_NEW&quot;&gt;\nhttp://img829.imageshack.us/img829/1571/ibf.png&lt;/a&gt; &lt;a href=&quot;\nhttp://img16.imageshack.us/img16/1047/64b.png&quot; rel=&quot;nofollow&quot; target=&quot;_NEW&quot;&gt;\nhttp://img16.imageshack.us/img16/1047/64b.png&lt;/a&gt; &lt;a href=&quot;\nhttp://img836.imageshack.us/img836/4748/b74z.png&quot; rel=&quot;nofollow&quot; target=&quot;_NEW&quot;&gt;\nhttp://img836.imageshack.us/img836/4748/b74z.png&lt;/a&gt; &lt;a href=&quot;\nhttp://img32.imageshack.us/img32/6544/is0s.png&quot; rel=&quot;nofollow&quot; target=&quot;_NEW&quot;&gt;\nhttp://img32.imageshack.us/img32/6544/is0s.png&lt;/a&gt;","torrent":{"xt":"urn:btih:50bff1fa5520d53a4c4e432b27e917c6c59dba9d","amp;dn":"The+Crown+and+the+Dragon+2013+DVDRip+x264+AAC-BadMeetsEvil","amp;tr":["udp%3A%2F%2Ftracker.openbittorrent.com%3A80","udp%3A%2F%2Fopen.demonii.com%3A1337","udp%3A%2F%2Ftracker.coppersurfer.tk%3A6969","udp%3A%2F%2Fexodus.desync.com%3A6969"],"infoHash":"50bff1fa5520d53a4c4e432b27e917c6c59dba9d","infoHashBuffer":{"type":"Buffer","data":[80,191,241,250,85,32,213,58,76,78,67,43,39,233,23,198,197,157,186,157]},"announce":[],"urlList":[]}}